<?xml version="1.0" encoding="utf-8"?>
<!-- Generator: Adobe Illustrator 23.0.1, SVG Export Plug-In . SVG Version: 6.00 Build 0)  -->
<svg version="1.1" id="Layer_1" xmlns="http://www.w3.org/2000/svg" xmlns:xlink="http://www.w3.org/1999/xlink" x="0px" y="0px"
	 viewBox="0 0 31.7 31.7" style="enable-background:new 0 0 31.7 31.7;" xml:space="preserve">
<style type="text/css">
	.st0{fill:#FFFFFF;}
</style>
<path class="st0" d="M26.7,31.7H5c-2.8,0-5-2.2-5-5V5c0-2.8,2.2-5,5-5h21.7c2.8,0,5,2.2,5,5v21.7C31.7,29.5,29.5,31.7,26.7,31.7z"/>
<path d="M28.7,10.1V6.3L24,8.7V8.6c0-1.6-1.1-2.5-2.7-2.5H6.4C4.7,6.1,3.7,7,3.7,8.6v3.9l6.6,3.4l-6.6,3.4v3.9c0,1.5,1,2.5,2.7,2.5
	h14.8c1.6,0,2.7-0.9,2.7-2.5V23l4.7,2.5v-4l-10.9-5.7L28.7,10.1L28.7,10.1z M14,17.8l8,4.2H5.9L14,17.8z M22,9.7l-8,4.2L5.9,9.7
	C5.9,9.7,22,9.7,22,9.7z"/>
</svg>
