<?xml version="1.0" encoding="utf-8"?>
<!-- Generator: Adobe Illustrator 23.0.1, SVG Export Plug-In . SVG Version: 6.00 Build 0)  -->
<svg version="1.1"
	 id="Warstwa_1" xmlns:cc="http://creativecommons.org/ns#" xmlns:dc="http://purl.org/dc/elements/1.1/" xmlns:rdf="http://www.w3.org/1999/02/22-rdf-syntax-ns#"
	 xmlns="http://www.w3.org/2000/svg" xmlns:xlink="http://www.w3.org/1999/xlink" x="0px" y="0px" viewBox="0 0 800 800"
	 style="enable-background:new 0 0 800 800;" xml:space="preserve">
<style type="text/css">
	.st0{fill:#00BCF2;}
</style>
<path class="st0" d="M550.9,593.3c-0.5-1.3-19.3-18-41.8-37.2c-22.5-19.2-41.9-35.8-43.1-36.9s3-5,9.2-8.7
	c6.3-3.7,18.3-13.9,26.7-22.7c24.6-25.8,36.2-57.6,36.2-99.3c0-41.1-12.5-74.2-37.6-99.5c-25.3-25.5-54.3-36.4-96.5-36.4
	c-65.1,0-115.1,38-131,99.6c-5.5,21.2-5.5,64,0.1,82.8c14.4,49,53.6,84.6,102.3,92.9c16.5,2.8,18.7,4,30,16.3
	c6.7,7.3,20.4,21.9,30.5,32.4l18.3,19.1H503C529.8,595.5,551.4,594.5,550.9,593.3L550.9,593.3z M383.7,456.8
	c-11.7-6.1-16.2-10.9-22.9-24.5c-5.2-10.5-6.1-16.5-6.1-41.3c-0.1-25.2,0.7-30.7,6.1-41.6c8.8-17.9,21-26.4,39.8-27.8
	c17.9-0.4,34.7,2.1,46.8,25.8c4.3,11.6,6.6,28.4,6,44.2c-0.6,15.4-2.8,34.3-9.7,46c-3.2,5.3-10.2,12.8-18.1,17.4
	C413.4,462,395.2,462.8,383.7,456.8L383.7,456.8z M167.6,527.1c51.1-9.7,80.1-39.4,80.1-82.1c0-37.9-18.7-59.9-70.5-83
	c-29.6-13.2-40.4-21.5-40.4-31.2c0-8,10.2-16.9,22-19.1c11.6-2.2,42.3,3.2,60.4,10.5l15.2,6.1v-33.6V261l-16.5-3.7
	c-10.2-2.3-31.6-3.6-56.1-3.5c-34.7,0-41.4,0.8-54.5,6c-38.1,15.1-56.2,40.9-55.9,79.7c0.3,36.3,19.4,58.9,67.1,79.3
	c28.1,12,39.4,21.2,39.4,32c0,23-38.3,25.8-78.8,5.8c-11.1-5.5-21.1-10.4-22.2-10.9s-2,15.2-2,34.9c0,35.8,0,35.9,6.5,38.4
	C86,528.2,139.8,532.4,167.6,527.1z M751.9,493.9v-30.4h-46.2h-46.2V359.3V255h-40.9h-40.9v134.6v134.6h87.1h87.1L751.9,493.9
	L751.9,493.9z"/>
</svg>
